<svg preserveAspectRatio="none" overflow="visible" style="display: block;" width="44.7502" height="44" viewBox="0 0 44.7502 44" fill="none" xmlns="http://www.w3.org/2000/svg">
<g id="Group">
<path id="Vector" d="M43.4136 2.7943C41.7266 0.745545 37.9323 0.352574 36.3794 0.278787C32.7005 0.103806 28.0933 0.0258131 21.4583 0.0258131C21.4512 0.0258131 21.4436 0.0258131 21.4364 0.0258131C18.4407 -0.0412278 16.1174 0.0359353 14.1425 0.102555C12.9846 0.141767 11.8913 0.178447 10.849 0.178447H10.8486C10.3734 0.178447 9.90244 0.170868 9.42978 0.152738C9.11819 0.140932 8.81418 0.134183 8.51692 0.134183C5.23867 0.134183 1.81453 0.899026 1.27103 6.57684C0.829572 11.1854 -0.059663 32.7384 0.00316144 34.1505C0.21356 38.9163 2.96688 43.7314 8.64342 43.7466C11.1088 43.7538 13.5783 43.8141 15.966 43.8727C18.5225 43.9351 21.1649 44 23.8238 44C26.475 44 39.338 43.6888 40.5751 43.3422C42.9211 42.6857 44.2194 40.1652 44.2295 36.2448C44.2354 33.9131 44.2324 28.1573 44.2303 24.8175L44.2295 22.5819C44.2295 21.952 44.3265 19.8834 44.4298 17.693C44.5731 14.6454 44.7359 11.1917 44.7359 9.67929C44.7359 9.42799 44.7392 9.1691 44.7426 8.90389C44.7696 6.829 44.7995 4.47707 43.4136 2.7943ZM39.424 25.7434C39.4236 25.4014 39.4253 25.0485 39.4283 24.6909C39.5041 24.6656 39.5805 24.6404 39.6066 24.6336C39.7896 24.621 39.984 24.6264 40.1897 24.6328C40.3057 24.6366 40.425 24.6395 40.5351 24.6399C40.7767 24.6399 41.06 24.6121 41.3598 24.5822C41.8649 24.5333 42.5581 24.4645 42.814 24.5923C42.8364 24.6032 42.8604 24.6032 42.8836 24.6108V24.8179C42.8836 25.0456 42.8836 25.2859 42.884 25.5338C41.6149 25.7328 40.4566 25.8424 39.4232 25.8669V25.7434H39.424ZM39.4253 26.7654C40.4646 26.7418 41.6233 26.6343 42.8853 26.4416C42.8853 26.733 42.8853 27.0323 42.8857 27.3389C41.8265 27.2706 40.2488 27.5286 39.4308 27.7419C39.4278 27.4253 39.4261 27.1015 39.4253 26.7654ZM42.884 23.6782C42.4232 23.577 41.8417 23.6318 41.2725 23.6883C40.9951 23.7157 40.7328 23.7414 40.5359 23.7414C40.4246 23.7503 40.3247 23.7376 40.2176 23.7347C39.9979 23.7271 39.771 23.7208 39.5413 23.7376C39.5101 23.7402 39.4759 23.7461 39.4388 23.7541C39.4443 23.3805 39.4502 23.0048 39.4578 22.6274C39.5223 22.6633 39.5931 22.689 39.672 22.689C40.105 22.689 40.6329 22.6215 41.192 22.5499C41.7713 22.4756 42.3641 22.4006 42.8853 22.3938C42.8844 22.4634 42.8836 22.5284 42.8836 22.5815L42.884 23.6782ZM39.4447 28.6708C40.167 28.4242 42.0066 28.1653 42.8857 28.2302C42.8861 28.7379 42.8861 29.2531 42.8865 29.7704C42.6433 29.7608 42.3751 29.7426 42.0943 29.7228C41.2156 29.6613 40.2479 29.5972 39.478 29.7506C39.4628 29.3901 39.4523 29.0317 39.4447 28.6708ZM39.6357 32.0271C39.5902 31.549 39.5539 31.0953 39.5261 30.6568C40.1746 30.4898 41.1928 30.5602 42.0315 30.6184C42.3359 30.6403 42.6192 30.6563 42.8865 30.6664C42.8865 31.0957 42.8865 31.5194 42.8865 31.9352C42.112 32.0157 40.5679 32.0233 39.7074 32.0267L39.6357 32.0271ZM42.9123 21.4966C42.3296 21.5008 41.6967 21.5805 41.0781 21.6602C40.5485 21.7277 40.0481 21.7913 39.672 21.7913C39.5999 21.7913 39.5341 21.812 39.4738 21.8428C39.4864 21.2613 39.5004 20.6866 39.5143 20.1271C39.8921 20.2034 40.3107 20.2355 40.7505 20.2355C41.2991 20.2355 41.8729 20.1937 42.4147 20.1545C42.6062 20.141 42.7913 20.128 42.9696 20.1166C42.9464 20.6365 42.927 21.1024 42.9123 21.4966ZM39.7192 32.9252C40.6181 32.9209 42.0466 32.9142 42.8865 32.8392C42.8865 33.2844 42.8861 33.7111 42.8861 34.1138C42.3203 34.1075 41.7418 34.1403 41.1755 34.1745C40.7079 34.2027 40.2273 34.2302 39.7719 34.2344C39.7782 33.7908 39.7542 33.3493 39.7192 32.9252ZM43.3963 8.88197H39.4616C39.446 8.76728 39.4308 8.6589 39.416 8.56445C39.3844 8.36206 39.3764 8.14197 39.3713 7.91428C40.2374 7.85188 41.1776 7.89868 42.0901 7.94843C42.5235 7.97162 42.965 7.99102 43.4026 8.00325C43.4031 8.29924 43.4001 8.59356 43.3963 8.88197ZM39.5598 9.77963H43.3891C43.3879 10.0684 43.3811 10.4205 43.3702 10.824C43.2618 10.8228 43.1543 10.8228 43.0459 10.8211C42.3203 10.8097 41.5702 10.7979 40.8306 10.8321C40.374 10.854 39.9886 10.8839 39.6193 10.9282C39.6159 10.9282 39.6121 10.9282 39.6091 10.9282C39.6083 10.528 39.5893 10.138 39.5598 9.77963ZM43.3845 7.10474C42.9709 7.09251 42.5513 7.07397 42.1386 7.05162C41.2076 7.00103 40.2488 6.95338 39.3368 7.01747C39.3009 6.63083 39.2149 6.23406 39.0066 5.88874C39.6252 5.89717 40.245 5.90981 40.8509 5.92541C41.6452 5.94523 42.4632 5.96252 43.2804 5.968C43.3352 6.3382 43.3676 6.71894 43.3845 7.10474ZM38.0191 7.73005C38.0242 8.06736 38.0297 8.41563 38.0849 8.77107C38.3893 10.7351 38.3033 12.428 37.8699 13.1384C37.1311 13.6908 35.8738 13.7565 34.9795 13.7565H34.9791C34.4445 13.7565 33.9166 13.73 33.4064 13.7034L33.0918 13.6878C32.0398 13.6359 31.5229 13.4163 31.2666 12.9419C31.068 12.3841 30.7947 7.93411 31.194 6.76321C31.3226 6.38584 31.5718 6.18176 32.5176 6.18176C32.7216 6.18176 32.9312 6.19061 33.1412 6.1982C33.6509 6.21886 34.1603 6.22478 34.5414 6.17334C34.7658 6.14298 35.0997 6.12486 35.4568 6.12486C36.3579 6.12486 37.2395 6.23237 37.6017 6.38627C37.9483 6.533 38.0048 6.81972 38.0191 7.73005ZM39.5716 11.8296C39.6239 11.8275 39.6762 11.8258 39.7251 11.8199C40.0729 11.7786 40.4377 11.7495 40.8728 11.7293C41.5849 11.6964 42.3211 11.7078 43.0324 11.7188C43.1362 11.7204 43.239 11.7204 43.3423 11.7217C43.3305 12.0569 43.317 12.4123 43.3023 12.783H39.4253C39.4966 12.479 39.5434 12.1573 39.5716 11.8296ZM40.2133 42.0448C39.2554 42.3075 27.0122 42.652 23.8246 42.652C21.1822 42.652 18.5478 42.5875 15.9998 42.5251C13.6044 42.4661 11.1277 42.4062 8.64806 42.3986C3.53145 42.3855 1.51854 37.9149 1.34988 34.0902C1.29001 32.7493 2.19485 11.072 2.61312 6.70461C3.03139 2.33557 5.09447 1.48048 8.51777 1.48048C8.79816 1.48048 9.0853 1.48722 9.37919 1.49818C9.86955 1.51716 10.357 1.52474 10.8499 1.52474C11.9141 1.52474 13.0196 1.48764 14.1888 1.448C15.6119 1.40036 17.2251 1.34596 19.1233 1.34596C19.8388 1.34596 20.5969 1.35357 21.4221 1.37255C28.0621 1.37255 32.6554 1.45012 36.3161 1.62426C37.1387 1.66389 39.4493 1.84984 41.1055 2.69143C40.8707 2.69692 40.6371 2.69861 40.4018 2.70451C39.4936 2.72728 38.5546 2.75129 37.6295 2.75129C37.3816 2.75129 37.1805 2.95242 37.1805 3.20034C37.1805 3.44827 37.3816 3.64939 37.6295 3.64939C38.566 3.64939 39.5109 3.62536 40.4246 3.60217C41.0499 3.58614 41.6726 3.57561 42.2954 3.56676C42.3211 3.59501 42.3502 3.62074 42.3747 3.64983C42.709 4.05629 42.9363 4.53864 43.0906 5.06653C42.346 5.05979 41.6005 5.04418 40.8741 5.02605C39.9633 5.00371 39.0214 4.9805 38.0942 4.9805C38.0077 4.9805 37.9319 5.01089 37.8635 5.05305C37.0397 4.80049 35.8384 4.77686 35.4577 4.77686C35.036 4.77686 34.646 4.79922 34.3597 4.83801C34.0679 4.87764 33.6248 4.86877 33.1951 4.85191C32.9674 4.84263 32.7402 4.83379 32.5184 4.83379C31.9471 4.83379 30.4292 4.83378 29.9194 6.32765C29.4303 7.76249 29.6871 12.8361 30.0619 13.539C30.718 14.7655 31.9905 14.9818 33.0265 15.0324L33.3381 15.0485C33.8407 15.0742 34.4103 15.1033 34.9799 15.1033C36.1125 15.1033 37.7404 15.0012 38.8025 14.1179C38.8468 14.0808 38.8864 14.0386 38.9202 13.991C38.9889 13.8944 39.0505 13.7899 39.1065 13.6802H43.2656C43.2483 14.0854 43.2298 14.5024 43.2108 14.9241C42.483 14.9405 41.3977 14.9856 40.3348 15.0299C39.0306 15.0847 37.6818 15.1412 37.0409 15.1412C36.793 15.1412 36.5919 15.3423 36.5919 15.5907C36.5919 15.839 36.793 16.0397 37.0409 16.0397C37.7004 16.0397 39.0585 15.9824 40.3719 15.9276C41.402 15.8841 42.4548 15.8403 43.1695 15.8239C43.1551 16.1279 43.1412 16.4314 43.1269 16.7342C42.6892 16.7257 42.1365 16.7118 41.5297 16.6967C39.4283 16.6435 36.8132 16.5778 35.8789 16.6638C35.6322 16.6874 35.4501 16.9058 35.4733 17.1529C35.496 17.3995 35.7165 17.5813 35.9619 17.5585C36.844 17.4763 39.5391 17.545 41.5074 17.5943C42.104 17.6091 42.6487 17.6234 43.0847 17.6318C43.059 18.1817 43.0337 18.7125 43.0109 19.213C42.7989 19.2252 42.5779 19.2408 42.3498 19.2577C41.4083 19.3252 40.2627 19.4069 39.537 19.213L39.5505 18.6767C39.5552 18.4874 39.4793 18.3044 39.3422 18.1732C39.2052 18.0425 39.0201 17.9721 38.8295 17.9885C38.1106 18.04 37.1628 18.016 36.3039 17.9835C35.8262 17.9658 35.3628 17.9489 34.9298 17.9489C34.4605 17.9489 34.0865 17.9683 33.7534 18.0101C33.4304 18.0505 33.1825 18.3153 33.1639 18.6396C32.7402 26.0094 31.42 33.5437 24.8369 33.5437C19.7937 33.5437 16.0807 32.2784 13.8005 29.7819C11.5477 27.3153 10.6289 23.6006 11.0691 18.7391C11.1007 18.3895 10.8591 18.0746 10.5138 18.0143C10.015 17.9278 9.08657 17.7664 8.12017 17.7664C7.08378 17.7664 6.21604 17.9531 5.54099 18.3217C5.33565 18.4338 5.20325 18.6442 5.19102 18.8769C5.06327 21.3052 5.06326 24.4747 5.1906 28.0434C5.23571 29.3096 5.31119 30.2507 5.39046 31.2483C5.45328 32.038 5.51863 32.8548 5.5705 33.8722C5.68518 36.1292 5.97232 37.554 8.9879 38.3133C10.5842 38.7156 12.6646 38.7388 14.5 38.7586C15.2923 38.7674 16.0407 38.775 16.7056 38.8117C18.1725 38.8901 19.7499 38.9289 21.5292 38.9289C23.1027 38.9289 24.6932 38.8998 26.2317 38.8712C27.7939 38.8421 29.4096 38.8121 31.0325 38.8121C31.3951 38.8121 31.7763 38.821 32.1676 38.8298C32.5918 38.8395 33.0286 38.8496 33.4667 38.8496C34.8741 38.8496 36.489 38.7577 37.7952 38.0755C39.0551 37.4165 39.5484 36.3164 39.7078 35.1325C40.2087 35.1312 40.7277 35.1 41.2308 35.0696C41.7827 35.0363 42.3473 35.0039 42.8857 35.0098C42.8853 35.4782 42.8849 35.8986 42.884 36.2393C42.884 36.2515 42.8836 36.2658 42.8832 36.2785H40.0443C39.7963 36.2785 39.5952 36.4796 39.5952 36.7275C39.5952 36.9754 39.7963 37.1762 40.0443 37.1762H42.8507C42.8208 37.6307 42.7651 38.1152 42.6715 38.6H37.2572C37.0093 38.6 36.8082 38.8012 36.8082 39.0491C36.8082 39.2974 37.0093 39.4981 37.2572 39.4981H42.4455C42.3388 39.8367 42.2081 40.1622 42.0471 40.4637C41.5807 40.4877 41.1152 40.513 40.6497 40.5392C38.7895 40.6421 36.8638 40.7517 34.9386 40.7361C34.9374 40.7361 34.9365 40.7361 34.9357 40.7361C34.689 40.7361 34.4883 40.9355 34.4866 41.1822C34.4854 41.4305 34.6848 41.6325 34.9327 41.6342C35.0411 41.6354 35.149 41.6354 35.2574 41.6354C37.1029 41.6354 38.9299 41.5342 40.7003 41.436C40.915 41.4242 41.13 41.4128 41.3446 41.4014C41.0322 41.6949 40.6603 41.9196 40.2133 42.0448ZM12.8054 30.6909C15.3517 33.4784 19.3995 34.8917 24.8365 34.8917C33.2424 34.8917 34.1683 24.4135 34.4744 19.3049C34.9732 19.2864 35.6128 19.307 36.2537 19.3306C36.8879 19.3543 37.5777 19.377 38.1857 19.3652L38.1794 19.6165C38.13 21.5826 38.0744 23.811 38.0769 25.7446L38.0773 26.0284C38.0798 28.2454 38.0815 29.996 38.305 32.2645L38.3101 32.318C38.5213 34.4566 38.5715 36.1507 37.1712 36.8827C36.1234 37.4304 34.7101 37.5042 33.4662 37.5042C33.0383 37.5042 32.6124 37.4941 32.1984 37.4848C31.7961 37.4751 31.4044 37.4662 31.0317 37.4662C29.3962 37.4662 27.7741 37.4962 26.2056 37.5257C24.6734 37.5535 23.0888 37.5831 21.5279 37.5831C19.7735 37.5831 18.2193 37.5455 16.7773 37.4675C16.0828 37.43 15.3201 37.4215 14.5127 37.4127C12.7523 37.3937 10.7567 37.3718 9.31552 37.0088C7.14491 36.4615 7.01842 35.8484 6.91427 33.8051C6.86157 32.7687 6.79579 31.9423 6.73212 31.1429C6.65369 30.1613 6.5799 29.2337 6.53563 27.997C6.41673 24.664 6.40999 21.6885 6.5154 19.3564C6.94674 19.1957 7.48433 19.1152 8.1189 19.1152C8.67293 19.1152 9.22908 19.178 9.67644 19.2446C9.33617 24.1955 10.3873 28.0447 12.8054 30.6909Z" fill="white"/>
<path id="Vector_2" d="M21.9511 31.0968C22.3998 31.1617 22.8492 31.1946 23.2869 31.1946H23.2873C27.7243 31.1946 31.1062 27.8514 31.328 23.2463C31.4351 21.0335 30.3211 16.9406 29.2729 15.6968C28.1375 14.3479 26.246 12.5349 22.9112 12.6736C21.0151 12.7537 18.177 14.1025 16.816 15.2629C14.5994 17.1531 14.295 19.4721 14.2963 21.6963C14.2988 26.2703 17.7326 30.4875 21.9511 31.0968ZM17.6905 16.2883C18.8576 15.2933 21.4174 14.0853 22.9677 14.0203C23.0672 14.0161 23.1651 14.014 23.2616 14.014C24.6125 14.014 25.6599 14.4095 26.4969 14.9585C25.9319 14.945 25.3576 14.9547 24.7909 14.9665C24.435 14.9741 24.0876 14.9817 23.7554 14.9817C23.5074 14.9817 23.3067 15.1832 23.3067 15.4303C23.3067 15.6787 23.5078 15.8793 23.7558 15.8793H23.7562C24.0939 15.8793 24.4481 15.8718 24.8099 15.8642C25.7885 15.8439 26.7891 15.8309 27.685 15.9481C27.817 16.0826 27.9427 16.2183 28.0611 16.3533C27.7146 16.3394 27.3503 16.3588 26.9919 16.3781C26.3978 16.4098 25.7847 16.4418 25.4558 16.2989C25.2286 16.1998 24.9638 16.3039 24.8647 16.5316C24.766 16.7589 24.8702 17.0233 25.0974 17.1224C25.6211 17.3505 26.3101 17.3129 27.0395 17.2745C27.661 17.2417 28.3006 17.2088 28.694 17.3631C28.7902 17.5769 28.8871 17.8164 28.9841 18.079C28.3799 18.082 27.7744 18.125 27.1833 18.171C26.6052 18.2148 26.0073 18.2612 25.4356 18.2625C25.1877 18.2629 24.987 18.4644 24.9874 18.7128C24.9882 18.9603 25.1889 19.161 25.4364 19.161C25.4364 19.161 25.4369 19.161 25.4377 19.161C26.0432 19.1593 26.6575 19.1121 27.252 19.0661C27.9262 19.0151 28.6177 18.9658 29.2856 18.9818C29.3758 19.2782 29.4623 19.5868 29.5411 19.9005C29.5327 19.901 29.5247 19.9014 29.5158 19.9018C28.6898 19.9478 27.8364 19.9933 27.1605 19.8006C26.9227 19.7319 26.6735 19.8706 26.6052 20.1084C26.5369 20.3466 26.6748 20.5954 26.913 20.6633C27.3895 20.8003 27.903 20.8404 28.4259 20.8404C28.8037 20.8404 29.1873 20.8193 29.5647 20.7982C29.6242 20.7952 29.6819 20.7927 29.741 20.7893C29.8126 21.1486 29.8729 21.5053 29.9155 21.8485C29.4488 21.8574 28.982 21.8949 28.5245 21.935C28.0312 21.978 27.5206 22.0235 27.0366 22.0235C26.7886 22.0235 26.5875 22.2246 26.5875 22.4725C26.5875 22.7205 26.7886 22.9212 27.0366 22.9212C27.5598 22.9212 28.0902 22.8744 28.6034 22.8292C29.0807 22.7875 29.539 22.7491 29.9855 22.7441C29.9893 22.8954 29.9889 23.0418 29.9821 23.1805C29.9712 23.4132 29.9493 23.6422 29.9193 23.8665C29.3733 23.8859 28.8386 23.9559 28.3175 24.0254C27.7124 24.106 27.1411 24.1819 26.5555 24.1835C26.3075 24.1848 26.1073 24.3859 26.1077 24.6339C26.1081 24.8814 26.3092 25.0821 26.5567 25.0821H26.558C27.2014 25.08 27.8292 24.9965 28.436 24.9159C28.8821 24.8561 29.3109 24.8008 29.7376 24.7747C29.585 25.3675 29.3703 25.9266 29.0916 26.436C29.0604 26.4322 29.0301 26.4233 28.9976 26.4267C27.6749 26.5447 26.1127 26.6649 24.5556 26.6649C24.3077 26.6649 24.1066 26.866 24.1066 27.114C24.1066 27.3623 24.3077 27.563 24.5556 27.563C25.9163 27.563 27.263 27.4728 28.4668 27.372C28.2096 27.6983 27.9241 27.9965 27.6129 28.2655C26.9101 28.2562 26.2009 28.2773 25.5123 28.3021C24.9343 28.3232 24.3372 28.3456 23.7549 28.3456C23.507 28.3456 23.3059 28.5467 23.3059 28.7942C23.3059 29.0425 23.507 29.2432 23.7549 29.2432C24.3532 29.2432 24.9591 29.2205 25.5448 29.1994C25.7691 29.1914 25.9976 29.1855 26.2245 29.1783C25.3458 29.6054 24.3545 29.8458 23.2865 29.8458C22.9129 29.8458 22.5284 29.8179 22.1434 29.7623C18.5612 29.2441 15.6451 25.6247 15.6434 21.6938C15.6421 19.4359 15.9841 17.743 17.6905 16.2883Z" fill="white"/>
</g>
</svg>
