<svg width="17.1209" height="24" viewBox="0 0 17.1209 24" fill="none" xmlns="http://www.w3.org/2000/svg">
<g id="Group">
<g id="Group_2">
<path id="Vector" d="M16.4202 0.700652H8.31608V5.39049H16.4202V0.700652Z" stroke="white" stroke-width="1.4013" stroke-miterlimit="10"/>
<path id="Vector_2" d="M12.3679 23.2993C10.9323 23.2993 9.76843 22.1355 9.76843 20.6998V5.39045H14.9674V20.6998C14.9674 22.1355 13.8036 23.2993 12.3679 23.2993Z" stroke="white" stroke-width="1.4013" stroke-miterlimit="10"/>
<path id="Vector_3" d="M11.0446 0.700677V5.39051" stroke="white" stroke-width="1.4013" stroke-miterlimit="10"/>
<path id="Vector_4" d="M13.7464 0.700677V5.39051" stroke="white" stroke-width="1.4013" stroke-miterlimit="10"/>
<path id="Vector_5" d="M14.9671 8.44421H12.3676V19.6915H14.9671" stroke="white" stroke-width="1.4013" stroke-miterlimit="10"/>
</g>
<path id="Vector_6" d="M2.08621 4.92332C1.32101 4.92332 0.700652 4.30297 0.700652 3.53776V2.12833C0.700652 1.36312 1.32101 0.742766 2.08621 0.742766C2.85142 0.742766 3.47178 1.36312 3.47178 2.12833V3.53776C3.47178 4.30301 2.85142 4.92332 2.08621 4.92332Z" stroke="white" stroke-width="1.4013" stroke-miterlimit="10"/>
<path id="Vector_7" d="M2.08621 23.257C1.32101 23.257 0.700652 22.6367 0.700652 21.8715V20.462C0.700652 19.6968 1.32101 19.0765 2.08621 19.0765C2.85142 19.0765 3.47178 19.6968 3.47178 20.462V21.8715C3.47178 22.6367 2.85142 23.257 2.08621 23.257Z" stroke="white" stroke-width="1.4013" stroke-miterlimit="10"/>
<path id="Vector_8" d="M2.08639 4.92336V19.0765" stroke="white" stroke-width="1.4013" stroke-miterlimit="10"/>
</g>
</svg>
